<svg xmlns="http://www.w3.org/2000/svg" viewBox="0 0 500 500" width="500" height="500"><defs><style>.cls-1{fill:#0797cc;}.cls-2{fill:#f2f2f2;}.cls-3{fill:#1b4454;}</style></defs><title>Icons_Round (1)</title><circle class="cls-1" cx="250" cy="250" r="250"/><g data-name="PriceTag"><path class="cls-2" d="M272.6 87.5C254.3 84.2 204.9 70 189.9 68.9 174.4 67.8 159.6 73.6 151 86S117.9 144.2 108 160s-8.3 25.5-1.3 41.4l99.9 227.1a31.5 31.5 0 0 0 41.5 16.1l139.6-61.4a31.5 31.5 0 0 0 16.1-41.5L304 114.6C297 98.6 291 90.9 272.6 87.5Zm-75.7 51.3a25.9 25.9 0 1 1 13.3-34.2A25.9 25.9 0 0 1 196.9 138.8Z"/><path class="cls-3" d="M224.55,187.85c27.6-10.22,58.89-7.1,72.88,24.14l-37.6,16.55c-4.13-10.49-12.83-12.69-22.2-11l12.1,27.49c5.18-.83,11-1.93,16.65-2.74,23.4-3.3,48.69-2.85,60.17,23.23,14.86,33.76-6.91,58.3-35.9,72.5l8,18.19-9.5,4.18-8-18.19c-32.38,13-65.69,10.81-81.56-24.68L237.19,301c7.2,14.2,17.88,16.5,31.23,12.32l-14-31.74c-4.08.59-9.06,1.33-14.24,2.16-23.2,3.21-48.92,3.43-60.57-23-13.7-31.13,9.48-56.29,35.32-68.87l-8-18.19,9.5-4.18Zm3.22,33.09c-7.8,3.67-16,10.88-11.6,20.79,2.85,6.47,11.44,6.79,23,5.09Zm50.07,88c8.62-4.52,17.34-12.69,13.06-22.4-3.47-7.88-12.84-8.34-25.79-6.51Z"/></g></svg>
